<svg width="80" height="76" viewBox="0 0 80 76" fill="none" xmlns="http://www.w3.org/2000/svg">
<path d="M5.80244 65.8072C5.00561 66.5722 4.97978 67.8382 5.74473 68.6351C6.50967 69.4319 7.77574 69.4577 8.57256 68.6928L5.80244 65.8072ZM25.9375 49.25L27.3226 47.8072C26.5486 47.0643 25.3264 47.0643 24.5524 47.8072L25.9375 49.25ZM35.3125 58.25L33.9274 59.6928C34.7014 60.4357 35.9236 60.4357 36.6976 59.6928L35.3125 58.25ZM56.4062 38L57.7913 36.5572C57.0174 35.8143 55.7951 35.8143 55.0212 36.5572L56.4062 38ZM73.7712 57.4428C74.568 58.2077 75.8341 58.1819 76.599 57.3851C77.364 56.5882 77.3381 55.3222 76.5413 54.5572L73.7712 57.4428ZM8.57256 68.6928L27.3226 50.6928L24.5524 47.8072L5.80244 65.8072L8.57256 68.6928ZM24.5524 50.6928L33.9274 59.6928L36.6976 56.8072L27.3226 47.8072L24.5524 50.6928ZM36.6976 59.6928L57.7913 39.4428L55.0212 36.5572L33.9274 56.8072L36.6976 59.6928ZM55.0212 39.4428L73.7712 57.4428L76.5413 54.5572L57.7913 36.5572L55.0212 39.4428ZM16.5625 4H63.4375V0H16.5625V4ZM75.5 15.5V60.5H79.5V15.5H75.5ZM63.4375 72H16.5625V76H63.4375V72ZM4.5 60.5V15.5H0.5V60.5H4.5ZM16.5625 72C9.82283 72 4.5 66.7751 4.5 60.5H0.5C0.5 69.1366 7.76916 76 16.5625 76V72ZM75.5 60.5C75.5 66.7751 70.1772 72 63.4375 72V76C72.2308 76 79.5 69.1366 79.5 60.5H75.5ZM63.4375 4C70.1772 4 75.5 9.22489 75.5 15.5H79.5C79.5 6.86342 72.2308 0 63.4375 0V4ZM16.5625 0C7.76916 0 0.5 6.86342 0.5 15.5H4.5C4.5 9.22489 9.82283 4 16.5625 4V0ZM28.625 22.25C28.625 24.7972 26.4502 27 23.5938 27V31C28.5038 31 32.625 27.1587 32.625 22.25H28.625ZM23.5938 27C20.7373 27 18.5625 24.7972 18.5625 22.25H14.5625C14.5625 27.1587 18.6837 31 23.5938 31V27ZM18.5625 22.25C18.5625 19.7028 20.7373 17.5 23.5938 17.5V13.5C18.6837 13.5 14.5625 17.3413 14.5625 22.25H18.5625ZM23.5938 17.5C26.4502 17.5 28.625 19.7028 28.625 22.25H32.625C32.625 17.3413 28.5038 13.5 23.5938 13.5V17.5Z" fill="#E8E7E1"/>
</svg>
